# xmcd
# 
# Track frame offsets:
#     150
#     13495
#     29649
#     45990
#     63706
#     77018
#     91885
#     106483
#     120016
#     135714
#     147231
#     162064
#     174180
# 
# Disc length: 2795
# 
# Revision: 5
# Processed by: cddbd v1.5.2PL0 Copyright (c) Steve Scherf et al.
# Submitted via: fre:ac v1.0.31
# 
DISCID=a30ae90d
DTITLE=Kacey Musgraves - Pageant Material
DYEAR=2015
DGENRE=Country
TTITLE0=High Time
TTITLE1=Dime Store Cowgirl
TTITLE2=Late To The Party
TTITLE3=Pageant Material
TTITLE4=This Town
TTITLE5=Biscuits
TTITLE6=Somebody To Love
TTITLE7=Miserable
TTITLE8=Die Fun
TTITLE9=Family Is Family
TTITLE10=Good Ol' Boys Club
TTITLE11=Cup Of Tea
TTITLE12=Fine
EXTD=
EXTT0=
EXTT1=
EXTT2=
EXTT3=
EXTT4=
EXTT5=
EXTT6=
EXTT7=
EXTT8=
EXTT9=
EXTT10=
EXTT11=
EXTT12=
PLAYORDER=
